<mxfile host="app.diagrams.net" modified="2020-09-10T20:03:00.670Z" agent="5.0 (Windows NT 10.0; Win64; x64) AppleWebKit/537.36 (KHTML, like Gecko) Chrome/85.0.4183.102 Safari/537.36" etag="_PTIeMf8k6QMAPYUtSdV" version="13.6.6" type="github">
  <diagram name="Page-1" id="74e2e168-ea6b-b213-b513-2b3c1d86103e">
    <mxGraphModel dx="1635" dy="1230" grid="1" gridSize="10" guides="1" tooltips="1" connect="1" arrows="1" fold="1" page="1" pageScale="1" pageWidth="1100" pageHeight="850" background="#ffffff" math="0" shadow="0">
      <root>
        <mxCell id="0" />
        <mxCell id="1" parent="0" />
        <mxCell id="JNfda0lmMKQyWXH00dV0-1" value="(3,3,L)" style="ellipse;whiteSpace=wrap;html=1;aspect=fixed;fillColor=#f8cecc;strokeColor=#b85450;" parent="1" vertex="1">
          <mxGeometry x="430" y="40" width="60" height="60" as="geometry" />
        </mxCell>
        <mxCell id="JNfda0lmMKQyWXH00dV0-2" value="(2,2,R)" style="ellipse;whiteSpace=wrap;html=1;" parent="1" vertex="1">
          <mxGeometry x="425" y="240" width="70" height="40" as="geometry" />
        </mxCell>
        <mxCell id="JNfda0lmMKQyWXH00dV0-3" value="(1,3,R)" style="ellipse;whiteSpace=wrap;html=1;" parent="1" vertex="1">
          <mxGeometry x="610" y="160" width="70" height="40" as="geometry" />
        </mxCell>
        <mxCell id="JNfda0lmMKQyWXH00dV0-4" value="(3,1,R)" style="ellipse;whiteSpace=wrap;html=1;" parent="1" vertex="1">
          <mxGeometry x="240" y="160" width="70" height="40" as="geometry" />
        </mxCell>
        <mxCell id="JNfda0lmMKQyWXH00dV0-5" value="L(1,1)" style="rhombus;whiteSpace=wrap;html=1;" parent="1" vertex="1">
          <mxGeometry x="412.5" y="140" width="95" height="50" as="geometry" />
        </mxCell>
        <mxCell id="JNfda0lmMKQyWXH00dV0-6" value="L(0,2)" style="rhombus;whiteSpace=wrap;html=1;" parent="1" vertex="1">
          <mxGeometry x="310" y="100" width="95" height="50" as="geometry" />
        </mxCell>
        <mxCell id="JNfda0lmMKQyWXH00dV0-7" value="L(2,0)" style="rhombus;whiteSpace=wrap;html=1;" parent="1" vertex="1">
          <mxGeometry x="515" y="100" width="95" height="50" as="geometry" />
        </mxCell>
        <mxCell id="JNfda0lmMKQyWXH00dV0-9" value="" style="endArrow=classic;html=1;exitX=0;exitY=1;exitDx=0;exitDy=0;" parent="1" source="JNfda0lmMKQyWXH00dV0-1" target="JNfda0lmMKQyWXH00dV0-6" edge="1">
          <mxGeometry width="50" height="50" relative="1" as="geometry">
            <mxPoint x="400" y="200" as="sourcePoint" />
            <mxPoint x="450" y="150" as="targetPoint" />
          </mxGeometry>
        </mxCell>
        <mxCell id="JNfda0lmMKQyWXH00dV0-10" value="" style="endArrow=classic;html=1;exitX=0;exitY=1;exitDx=0;exitDy=0;entryX=1;entryY=0;entryDx=0;entryDy=0;" parent="1" source="JNfda0lmMKQyWXH00dV0-6" target="JNfda0lmMKQyWXH00dV0-4" edge="1">
          <mxGeometry width="50" height="50" relative="1" as="geometry">
            <mxPoint x="400" y="180" as="sourcePoint" />
            <mxPoint x="345.25346637197003" y="202.75535600460034" as="targetPoint" />
          </mxGeometry>
        </mxCell>
        <mxCell id="JNfda0lmMKQyWXH00dV0-12" value="" style="endArrow=classic;html=1;exitX=1;exitY=1;exitDx=0;exitDy=0;entryX=0;entryY=0;entryDx=0;entryDy=0;" parent="1" source="JNfda0lmMKQyWXH00dV0-1" target="JNfda0lmMKQyWXH00dV0-7" edge="1">
          <mxGeometry width="50" height="50" relative="1" as="geometry">
            <mxPoint x="530" y="50" as="sourcePoint" />
            <mxPoint x="475.25346637197003" y="72.75535600460034" as="targetPoint" />
          </mxGeometry>
        </mxCell>
        <mxCell id="JNfda0lmMKQyWXH00dV0-13" value="" style="endArrow=classic;html=1;exitX=1;exitY=1;exitDx=0;exitDy=0;entryX=0;entryY=0;entryDx=0;entryDy=0;" parent="1" source="JNfda0lmMKQyWXH00dV0-7" target="JNfda0lmMKQyWXH00dV0-3" edge="1">
          <mxGeometry width="50" height="50" relative="1" as="geometry">
            <mxPoint x="550" y="210" as="sourcePoint" />
            <mxPoint x="495.25346637197003" y="232.75535600460034" as="targetPoint" />
          </mxGeometry>
        </mxCell>
        <mxCell id="JNfda0lmMKQyWXH00dV0-14" value="" style="endArrow=classic;html=1;exitX=0.5;exitY=1;exitDx=0;exitDy=0;" parent="1" source="JNfda0lmMKQyWXH00dV0-1" target="JNfda0lmMKQyWXH00dV0-5" edge="1">
          <mxGeometry width="50" height="50" relative="1" as="geometry">
            <mxPoint x="570" y="220" as="sourcePoint" />
            <mxPoint x="515.25346637197" y="242.75535600460034" as="targetPoint" />
          </mxGeometry>
        </mxCell>
        <mxCell id="JNfda0lmMKQyWXH00dV0-15" value="" style="endArrow=classic;html=1;exitX=0.5;exitY=1;exitDx=0;exitDy=0;entryX=0.5;entryY=0;entryDx=0;entryDy=0;" parent="1" source="JNfda0lmMKQyWXH00dV0-5" target="JNfda0lmMKQyWXH00dV0-2" edge="1">
          <mxGeometry width="50" height="50" relative="1" as="geometry">
            <mxPoint x="530" y="230" as="sourcePoint" />
            <mxPoint x="475.25346637197003" y="252.75535600460034" as="targetPoint" />
          </mxGeometry>
        </mxCell>
        <mxCell id="JNfda0lmMKQyWXH00dV0-17" value="R(0,1)" style="rhombus;whiteSpace=wrap;html=1;" parent="1" vertex="1">
          <mxGeometry x="295" y="220" width="95" height="50" as="geometry" />
        </mxCell>
        <mxCell id="JNfda0lmMKQyWXH00dV0-18" value="" style="endArrow=classic;html=1;exitX=0;exitY=1;exitDx=0;exitDy=0;entryX=0;entryY=0;entryDx=0;entryDy=0;" parent="1" source="JNfda0lmMKQyWXH00dV0-4" target="JNfda0lmMKQyWXH00dV0-17" edge="1">
          <mxGeometry width="50" height="50" relative="1" as="geometry">
            <mxPoint x="270" y="210" as="sourcePoint" />
            <mxPoint x="235.99873734152925" y="238.35786437626882" as="targetPoint" />
          </mxGeometry>
        </mxCell>
        <mxCell id="JNfda0lmMKQyWXH00dV0-19" value="" style="endArrow=classic;html=1;exitX=0;exitY=1;exitDx=0;exitDy=0;entryX=1;entryY=0;entryDx=0;entryDy=0;" parent="1" source="JNfda0lmMKQyWXH00dV0-17" target="j_SZXXdtGfIgWa1YjvlN-19" edge="1">
          <mxGeometry width="50" height="50" relative="1" as="geometry">
            <mxPoint x="170" y="270" as="sourcePoint" />
            <mxPoint x="150.25126265847098" y="325.85786437626916" as="targetPoint" />
          </mxGeometry>
        </mxCell>
        <mxCell id="JNfda0lmMKQyWXH00dV0-25" value="" style="endArrow=classic;html=1;exitX=0;exitY=0.5;exitDx=0;exitDy=0;" parent="1" source="JNfda0lmMKQyWXH00dV0-2" target="j_SZXXdtGfIgWa1YjvlN-100" edge="1">
          <mxGeometry width="50" height="50" relative="1" as="geometry">
            <mxPoint x="190" y="350" as="sourcePoint" />
            <mxPoint x="131.50126265847075" y="418.35786437626894" as="targetPoint" />
          </mxGeometry>
        </mxCell>
        <mxCell id="JNfda0lmMKQyWXH00dV0-26" value="R(1,0)" style="rhombus;whiteSpace=wrap;html=1;" parent="1" vertex="1">
          <mxGeometry x="560" y="230" width="95" height="50" as="geometry" />
        </mxCell>
        <mxCell id="JNfda0lmMKQyWXH00dV0-27" value="" style="endArrow=classic;html=1;exitX=1;exitY=0.5;exitDx=0;exitDy=0;" parent="1" source="JNfda0lmMKQyWXH00dV0-2" target="j_SZXXdtGfIgWa1YjvlN-97" edge="1">
          <mxGeometry width="50" height="50" relative="1" as="geometry">
            <mxPoint x="450" y="310" as="sourcePoint" />
            <mxPoint x="450" y="360" as="targetPoint" />
          </mxGeometry>
        </mxCell>
        <mxCell id="JNfda0lmMKQyWXH00dV0-28" value="" style="endArrow=classic;html=1;exitX=0.5;exitY=1;exitDx=0;exitDy=0;entryX=1;entryY=0;entryDx=0;entryDy=0;" parent="1" source="JNfda0lmMKQyWXH00dV0-3" target="JNfda0lmMKQyWXH00dV0-26" edge="1">
          <mxGeometry width="50" height="50" relative="1" as="geometry">
            <mxPoint x="510" y="310" as="sourcePoint" />
            <mxPoint x="510" y="360" as="targetPoint" />
          </mxGeometry>
        </mxCell>
        <mxCell id="JNfda0lmMKQyWXH00dV0-29" value="" style="endArrow=classic;html=1;exitX=1;exitY=1;exitDx=0;exitDy=0;entryX=0;entryY=0;entryDx=0;entryDy=0;" parent="1" source="JNfda0lmMKQyWXH00dV0-26" target="j_SZXXdtGfIgWa1YjvlN-38" edge="1">
          <mxGeometry width="50" height="50" relative="1" as="geometry">
            <mxPoint x="520" y="300" as="sourcePoint" />
            <mxPoint x="645" y="320" as="targetPoint" />
          </mxGeometry>
        </mxCell>
        <mxCell id="j_SZXXdtGfIgWa1YjvlN-19" value="(3,2,L)" style="ellipse;whiteSpace=wrap;html=1;aspect=fixed;" parent="1" vertex="1">
          <mxGeometry x="80" y="240" width="60" height="60" as="geometry" />
        </mxCell>
        <mxCell id="j_SZXXdtGfIgWa1YjvlN-20" value="(1,2,R)" style="ellipse;whiteSpace=wrap;html=1;" parent="1" vertex="1">
          <mxGeometry x="722.5" y="460" width="70" height="40" as="geometry" />
        </mxCell>
        <mxCell id="j_SZXXdtGfIgWa1YjvlN-21" value="(3,0,R)" style="ellipse;whiteSpace=wrap;html=1;" parent="1" vertex="1">
          <mxGeometry y="405" width="70" height="40" as="geometry" />
        </mxCell>
        <mxCell id="j_SZXXdtGfIgWa1YjvlN-22" value="L(1,1)" style="rhombus;whiteSpace=wrap;html=1;" parent="1" vertex="1">
          <mxGeometry x="110" y="390" width="95" height="50" as="geometry" />
        </mxCell>
        <mxCell id="j_SZXXdtGfIgWa1YjvlN-23" value="L(0,2)" style="rhombus;whiteSpace=wrap;html=1;" parent="1" vertex="1">
          <mxGeometry y="320" width="95" height="50" as="geometry" />
        </mxCell>
        <mxCell id="j_SZXXdtGfIgWa1YjvlN-24" value="L(2,0)" style="rhombus;whiteSpace=wrap;html=1;" parent="1" vertex="1">
          <mxGeometry x="160" y="355" width="95" height="50" as="geometry" />
        </mxCell>
        <mxCell id="j_SZXXdtGfIgWa1YjvlN-25" value="" style="endArrow=classic;html=1;exitX=0;exitY=1;exitDx=0;exitDy=0;" parent="1" source="j_SZXXdtGfIgWa1YjvlN-19" target="j_SZXXdtGfIgWa1YjvlN-23" edge="1">
          <mxGeometry width="50" height="50" relative="1" as="geometry">
            <mxPoint x="-70" y="440" as="sourcePoint" />
            <mxPoint x="-20" y="390" as="targetPoint" />
          </mxGeometry>
        </mxCell>
        <mxCell id="j_SZXXdtGfIgWa1YjvlN-26" value="" style="endArrow=classic;html=1;exitX=0;exitY=1;exitDx=0;exitDy=0;entryX=0.5;entryY=0;entryDx=0;entryDy=0;" parent="1" source="j_SZXXdtGfIgWa1YjvlN-23" edge="1" target="j_SZXXdtGfIgWa1YjvlN-21">
          <mxGeometry width="50" height="50" relative="1" as="geometry">
            <mxPoint x="-70" y="420" as="sourcePoint" />
            <mxPoint x="-170.25126265847098" y="405.85786437626916" as="targetPoint" />
          </mxGeometry>
        </mxCell>
        <mxCell id="j_SZXXdtGfIgWa1YjvlN-27" value="" style="endArrow=classic;html=1;exitX=1;exitY=1;exitDx=0;exitDy=0;entryX=0.5;entryY=0;entryDx=0;entryDy=0;" parent="1" source="j_SZXXdtGfIgWa1YjvlN-19" target="j_SZXXdtGfIgWa1YjvlN-24" edge="1">
          <mxGeometry width="50" height="50" relative="1" as="geometry">
            <mxPoint x="60" y="290" as="sourcePoint" />
            <mxPoint x="5.253466371970035" y="312.75535600460034" as="targetPoint" />
          </mxGeometry>
        </mxCell>
        <mxCell id="j_SZXXdtGfIgWa1YjvlN-28" value="" style="endArrow=classic;html=1;exitX=1;exitY=1;exitDx=0;exitDy=0;entryX=0;entryY=0;entryDx=0;entryDy=0;" parent="1" source="j_SZXXdtGfIgWa1YjvlN-24" target="j_SZXXdtGfIgWa1YjvlN-20" edge="1">
          <mxGeometry width="50" height="50" relative="1" as="geometry">
            <mxPoint x="80" y="450" as="sourcePoint" />
            <mxPoint x="25.253466371970035" y="472.75535600460034" as="targetPoint" />
          </mxGeometry>
        </mxCell>
        <mxCell id="j_SZXXdtGfIgWa1YjvlN-29" value="" style="endArrow=classic;html=1;exitX=0.5;exitY=1;exitDx=0;exitDy=0;" parent="1" target="j_SZXXdtGfIgWa1YjvlN-22" edge="1" source="j_SZXXdtGfIgWa1YjvlN-19">
          <mxGeometry width="50" height="50" relative="1" as="geometry">
            <mxPoint x="-10" y="340" as="sourcePoint" />
            <mxPoint x="45.253466371970035" y="482.75535600460034" as="targetPoint" />
          </mxGeometry>
        </mxCell>
        <mxCell id="j_SZXXdtGfIgWa1YjvlN-30" value="" style="endArrow=classic;html=1;exitX=0.5;exitY=1;exitDx=0;exitDy=0;entryX=0;entryY=0;entryDx=0;entryDy=0;" parent="1" source="j_SZXXdtGfIgWa1YjvlN-22" target="j_SZXXdtGfIgWa1YjvlN-37" edge="1">
          <mxGeometry width="50" height="50" relative="1" as="geometry">
            <mxPoint x="60" y="470" as="sourcePoint" />
            <mxPoint x="-10" y="480" as="targetPoint" />
          </mxGeometry>
        </mxCell>
        <mxCell id="j_SZXXdtGfIgWa1YjvlN-31" value="R(0,1)" style="rhombus;whiteSpace=wrap;html=1;" parent="1" vertex="1">
          <mxGeometry y="475" width="95" height="50" as="geometry" />
        </mxCell>
        <mxCell id="j_SZXXdtGfIgWa1YjvlN-32" value="" style="endArrow=classic;html=1;exitX=0.5;exitY=1;exitDx=0;exitDy=0;entryX=0;entryY=0;entryDx=0;entryDy=0;" parent="1" target="j_SZXXdtGfIgWa1YjvlN-31" edge="1" source="j_SZXXdtGfIgWa1YjvlN-21">
          <mxGeometry width="50" height="50" relative="1" as="geometry">
            <mxPoint x="-219.74873734152902" y="434.14213562373084" as="sourcePoint" />
            <mxPoint x="-234.00126265847075" y="478.3578643762688" as="targetPoint" />
          </mxGeometry>
        </mxCell>
        <mxCell id="j_SZXXdtGfIgWa1YjvlN-33" value="" style="endArrow=classic;html=1;exitX=0;exitY=1;exitDx=0;exitDy=0;entryX=1;entryY=0;entryDx=0;entryDy=0;" parent="1" source="j_SZXXdtGfIgWa1YjvlN-37" target="j_SZXXdtGfIgWa1YjvlN-102" edge="1">
          <mxGeometry width="50" height="50" relative="1" as="geometry">
            <mxPoint x="-45" y="500" as="sourcePoint" />
            <mxPoint x="-338.49873734152925" y="658.3578643762689" as="targetPoint" />
          </mxGeometry>
        </mxCell>
        <mxCell id="j_SZXXdtGfIgWa1YjvlN-34" value="R(1,0)" style="rhombus;whiteSpace=wrap;html=1;" parent="1" vertex="1">
          <mxGeometry x="615" y="520" width="95" height="50" as="geometry" />
        </mxCell>
        <mxCell id="j_SZXXdtGfIgWa1YjvlN-35" value="" style="endArrow=classic;html=1;exitX=0.5;exitY=1;exitDx=0;exitDy=0;entryX=0;entryY=0;entryDx=0;entryDy=0;" parent="1" source="j_SZXXdtGfIgWa1YjvlN-37" target="j_SZXXdtGfIgWa1YjvlN-101" edge="1">
          <mxGeometry width="50" height="50" relative="1" as="geometry">
            <mxPoint x="25" y="500" as="sourcePoint" />
            <mxPoint x="-20" y="600" as="targetPoint" />
          </mxGeometry>
        </mxCell>
        <mxCell id="j_SZXXdtGfIgWa1YjvlN-36" value="" style="endArrow=classic;html=1;exitX=0;exitY=1;exitDx=0;exitDy=0;entryX=1;entryY=0;entryDx=0;entryDy=0;" parent="1" source="j_SZXXdtGfIgWa1YjvlN-20" target="j_SZXXdtGfIgWa1YjvlN-34" edge="1">
          <mxGeometry width="50" height="50" relative="1" as="geometry">
            <mxPoint x="40" y="550" as="sourcePoint" />
            <mxPoint x="40" y="600" as="targetPoint" />
          </mxGeometry>
        </mxCell>
        <mxCell id="j_SZXXdtGfIgWa1YjvlN-37" value="(2,1,R)" style="ellipse;whiteSpace=wrap;html=1;" parent="1" vertex="1">
          <mxGeometry x="172.5" y="480" width="70" height="40" as="geometry" />
        </mxCell>
        <mxCell id="j_SZXXdtGfIgWa1YjvlN-38" value="(2,3,L)" style="ellipse;whiteSpace=wrap;html=1;aspect=fixed;" parent="1" vertex="1">
          <mxGeometry x="850" y="280" width="60" height="60" as="geometry" />
        </mxCell>
        <mxCell id="j_SZXXdtGfIgWa1YjvlN-39" value="(0,3,R)" style="ellipse;whiteSpace=wrap;html=1;" parent="1" vertex="1">
          <mxGeometry x="1030" y="400" width="70" height="40" as="geometry" />
        </mxCell>
        <mxCell id="j_SZXXdtGfIgWa1YjvlN-41" value="L(1,1)" style="rhombus;whiteSpace=wrap;html=1;" parent="1" vertex="1">
          <mxGeometry x="832.5" y="380" width="95" height="50" as="geometry" />
        </mxCell>
        <mxCell id="j_SZXXdtGfIgWa1YjvlN-42" value="L(0,2)" style="rhombus;whiteSpace=wrap;html=1;" parent="1" vertex="1">
          <mxGeometry x="730" y="340" width="95" height="50" as="geometry" />
        </mxCell>
        <mxCell id="j_SZXXdtGfIgWa1YjvlN-43" value="L(2,0)" style="rhombus;whiteSpace=wrap;html=1;" parent="1" vertex="1">
          <mxGeometry x="935" y="340" width="95" height="50" as="geometry" />
        </mxCell>
        <mxCell id="j_SZXXdtGfIgWa1YjvlN-44" value="" style="endArrow=classic;html=1;exitX=0;exitY=1;exitDx=0;exitDy=0;" parent="1" source="j_SZXXdtGfIgWa1YjvlN-38" target="j_SZXXdtGfIgWa1YjvlN-42" edge="1">
          <mxGeometry width="50" height="50" relative="1" as="geometry">
            <mxPoint x="820" y="440" as="sourcePoint" />
            <mxPoint x="870" y="390" as="targetPoint" />
          </mxGeometry>
        </mxCell>
        <mxCell id="j_SZXXdtGfIgWa1YjvlN-45" value="" style="endArrow=classic;html=1;exitX=0;exitY=1;exitDx=0;exitDy=0;entryX=1;entryY=0;entryDx=0;entryDy=0;" parent="1" source="j_SZXXdtGfIgWa1YjvlN-42" target="j_SZXXdtGfIgWa1YjvlN-37" edge="1">
          <mxGeometry width="50" height="50" relative="1" as="geometry">
            <mxPoint x="820" y="420" as="sourcePoint" />
            <mxPoint x="719.748737341529" y="405.85786437626916" as="targetPoint" />
          </mxGeometry>
        </mxCell>
        <mxCell id="j_SZXXdtGfIgWa1YjvlN-46" value="" style="endArrow=classic;html=1;exitX=1;exitY=1;exitDx=0;exitDy=0;entryX=0;entryY=0;entryDx=0;entryDy=0;" parent="1" source="j_SZXXdtGfIgWa1YjvlN-38" target="j_SZXXdtGfIgWa1YjvlN-43" edge="1">
          <mxGeometry width="50" height="50" relative="1" as="geometry">
            <mxPoint x="950" y="290" as="sourcePoint" />
            <mxPoint x="895.25346637197" y="312.75535600460034" as="targetPoint" />
          </mxGeometry>
        </mxCell>
        <mxCell id="j_SZXXdtGfIgWa1YjvlN-47" value="" style="endArrow=classic;html=1;exitX=1;exitY=1;exitDx=0;exitDy=0;entryX=0;entryY=0;entryDx=0;entryDy=0;" parent="1" source="j_SZXXdtGfIgWa1YjvlN-43" target="j_SZXXdtGfIgWa1YjvlN-39" edge="1">
          <mxGeometry width="50" height="50" relative="1" as="geometry">
            <mxPoint x="970" y="450" as="sourcePoint" />
            <mxPoint x="915.25346637197" y="472.75535600460034" as="targetPoint" />
          </mxGeometry>
        </mxCell>
        <mxCell id="j_SZXXdtGfIgWa1YjvlN-48" value="" style="endArrow=classic;html=1;exitX=0.5;exitY=1;exitDx=0;exitDy=0;" parent="1" source="j_SZXXdtGfIgWa1YjvlN-38" target="j_SZXXdtGfIgWa1YjvlN-41" edge="1">
          <mxGeometry width="50" height="50" relative="1" as="geometry">
            <mxPoint x="990" y="460" as="sourcePoint" />
            <mxPoint x="935.25346637197" y="482.75535600460034" as="targetPoint" />
          </mxGeometry>
        </mxCell>
        <mxCell id="j_SZXXdtGfIgWa1YjvlN-49" value="" style="endArrow=classic;html=1;exitX=0.5;exitY=1;exitDx=0;exitDy=0;entryX=1;entryY=0;entryDx=0;entryDy=0;" parent="1" source="j_SZXXdtGfIgWa1YjvlN-41" target="j_SZXXdtGfIgWa1YjvlN-20" edge="1">
          <mxGeometry width="50" height="50" relative="1" as="geometry">
            <mxPoint x="950" y="470" as="sourcePoint" />
            <mxPoint x="880" y="480" as="targetPoint" />
          </mxGeometry>
        </mxCell>
        <mxCell id="j_SZXXdtGfIgWa1YjvlN-53" value="R(1,0)" style="rhombus;whiteSpace=wrap;html=1;" parent="1" vertex="1">
          <mxGeometry x="980" y="470" width="95" height="50" as="geometry" />
        </mxCell>
        <mxCell id="j_SZXXdtGfIgWa1YjvlN-54" value="" style="endArrow=classic;html=1;exitX=1;exitY=1;exitDx=0;exitDy=0;entryX=0;entryY=0;entryDx=0;entryDy=0;" parent="1" source="j_SZXXdtGfIgWa1YjvlN-20" target="j_SZXXdtGfIgWa1YjvlN-103" edge="1">
          <mxGeometry width="50" height="50" relative="1" as="geometry">
            <mxPoint x="915" y="500" as="sourcePoint" />
            <mxPoint x="870" y="600" as="targetPoint" />
          </mxGeometry>
        </mxCell>
        <mxCell id="j_SZXXdtGfIgWa1YjvlN-55" value="" style="endArrow=classic;html=1;exitX=0.5;exitY=1;exitDx=0;exitDy=0;entryX=1;entryY=0;entryDx=0;entryDy=0;" parent="1" source="j_SZXXdtGfIgWa1YjvlN-39" target="j_SZXXdtGfIgWa1YjvlN-53" edge="1">
          <mxGeometry width="50" height="50" relative="1" as="geometry">
            <mxPoint x="930" y="550" as="sourcePoint" />
            <mxPoint x="930" y="600" as="targetPoint" />
          </mxGeometry>
        </mxCell>
        <mxCell id="j_SZXXdtGfIgWa1YjvlN-95" value="" style="endArrow=classic;html=1;exitX=0;exitY=1;exitDx=0;exitDy=0;entryX=1;entryY=0;entryDx=0;entryDy=0;" parent="1" source="j_SZXXdtGfIgWa1YjvlN-34" target="j_SZXXdtGfIgWa1YjvlN-106" edge="1">
          <mxGeometry width="50" height="50" relative="1" as="geometry">
            <mxPoint x="190" y="550" as="sourcePoint" />
            <mxPoint x="200" y="640" as="targetPoint" />
          </mxGeometry>
        </mxCell>
        <mxCell id="j_SZXXdtGfIgWa1YjvlN-97" value="R(0,1)" style="rhombus;whiteSpace=wrap;html=1;" parent="1" vertex="1">
          <mxGeometry x="560" y="300" width="95" height="50" as="geometry" />
        </mxCell>
        <mxCell id="j_SZXXdtGfIgWa1YjvlN-98" value="" style="endArrow=classic;html=1;exitX=1;exitY=0;exitDx=0;exitDy=0;entryX=0;entryY=0.5;entryDx=0;entryDy=0;" parent="1" source="j_SZXXdtGfIgWa1YjvlN-97" target="j_SZXXdtGfIgWa1YjvlN-38" edge="1">
          <mxGeometry width="50" height="50" relative="1" as="geometry">
            <mxPoint x="505" y="270" as="sourcePoint" />
            <mxPoint x="596.544117647059" y="331.02941176470586" as="targetPoint" />
          </mxGeometry>
        </mxCell>
        <mxCell id="j_SZXXdtGfIgWa1YjvlN-99" value="" style="endArrow=classic;html=1;exitX=0;exitY=0;exitDx=0;exitDy=0;entryX=1;entryY=0.5;entryDx=0;entryDy=0;" parent="1" source="j_SZXXdtGfIgWa1YjvlN-100" target="j_SZXXdtGfIgWa1YjvlN-19" edge="1">
          <mxGeometry width="50" height="50" relative="1" as="geometry">
            <mxPoint x="350" y="290" as="sourcePoint" />
            <mxPoint x="441.544117647059" y="351.02941176470586" as="targetPoint" />
          </mxGeometry>
        </mxCell>
        <mxCell id="j_SZXXdtGfIgWa1YjvlN-100" value="R(1,0)" style="rhombus;whiteSpace=wrap;html=1;" parent="1" vertex="1">
          <mxGeometry x="295" y="300" width="95" height="50" as="geometry" />
        </mxCell>
        <mxCell id="j_SZXXdtGfIgWa1YjvlN-101" value="R(0,1)" style="rhombus;whiteSpace=wrap;html=1;" parent="1" vertex="1">
          <mxGeometry x="282.5" y="520" width="95" height="50" as="geometry" />
        </mxCell>
        <mxCell id="j_SZXXdtGfIgWa1YjvlN-102" value="R(1,0)" style="rhombus;whiteSpace=wrap;html=1;" parent="1" vertex="1">
          <mxGeometry x="205" y="565" width="95" height="50" as="geometry" />
        </mxCell>
        <mxCell id="j_SZXXdtGfIgWa1YjvlN-103" value="R(0,1)" style="rhombus;whiteSpace=wrap;html=1;" parent="1" vertex="1">
          <mxGeometry x="775" y="540" width="95" height="50" as="geometry" />
        </mxCell>
        <mxCell id="j_SZXXdtGfIgWa1YjvlN-106" value="(2,2,L)" style="ellipse;whiteSpace=wrap;html=1;aspect=fixed;" parent="1" vertex="1">
          <mxGeometry x="455" y="540" width="60" height="60" as="geometry" />
        </mxCell>
        <mxCell id="j_SZXXdtGfIgWa1YjvlN-109" value="L(1,1)" style="rhombus;whiteSpace=wrap;html=1;" parent="1" vertex="1">
          <mxGeometry x="437.5" y="660" width="95" height="50" as="geometry" />
        </mxCell>
        <mxCell id="j_SZXXdtGfIgWa1YjvlN-110" value="L(0,2)" style="rhombus;whiteSpace=wrap;html=1;" parent="1" vertex="1">
          <mxGeometry x="350" y="615" width="95" height="50" as="geometry" />
        </mxCell>
        <mxCell id="j_SZXXdtGfIgWa1YjvlN-111" value="L(2,0)" style="rhombus;whiteSpace=wrap;html=1;" parent="1" vertex="1">
          <mxGeometry x="585" y="630" width="95" height="50" as="geometry" />
        </mxCell>
        <mxCell id="j_SZXXdtGfIgWa1YjvlN-112" value="" style="endArrow=classic;html=1;exitX=0;exitY=1;exitDx=0;exitDy=0;" parent="1" source="j_SZXXdtGfIgWa1YjvlN-106" target="j_SZXXdtGfIgWa1YjvlN-110" edge="1">
          <mxGeometry width="50" height="50" relative="1" as="geometry">
            <mxPoint x="375" y="720" as="sourcePoint" />
            <mxPoint x="425" y="670" as="targetPoint" />
          </mxGeometry>
        </mxCell>
        <mxCell id="j_SZXXdtGfIgWa1YjvlN-114" value="" style="endArrow=classic;html=1;exitX=1;exitY=1;exitDx=0;exitDy=0;entryX=0;entryY=0;entryDx=0;entryDy=0;" parent="1" source="j_SZXXdtGfIgWa1YjvlN-106" target="j_SZXXdtGfIgWa1YjvlN-111" edge="1">
          <mxGeometry width="50" height="50" relative="1" as="geometry">
            <mxPoint x="505" y="570" as="sourcePoint" />
            <mxPoint x="450.25346637197003" y="592.7553560046003" as="targetPoint" />
          </mxGeometry>
        </mxCell>
        <mxCell id="j_SZXXdtGfIgWa1YjvlN-115" value="" style="endArrow=classic;html=1;exitX=1;exitY=1;exitDx=0;exitDy=0;entryX=0;entryY=0;entryDx=0;entryDy=0;" parent="1" source="j_SZXXdtGfIgWa1YjvlN-111" target="yAPBlTvcmijGDb-cF1Fy-39" edge="1">
          <mxGeometry width="50" height="50" relative="1" as="geometry">
            <mxPoint x="525" y="730" as="sourcePoint" />
            <mxPoint x="595.5691946452735" y="685.6784934127463" as="targetPoint" />
          </mxGeometry>
        </mxCell>
        <mxCell id="j_SZXXdtGfIgWa1YjvlN-116" value="" style="endArrow=classic;html=1;exitX=0.5;exitY=1;exitDx=0;exitDy=0;" parent="1" source="j_SZXXdtGfIgWa1YjvlN-106" target="j_SZXXdtGfIgWa1YjvlN-109" edge="1">
          <mxGeometry width="50" height="50" relative="1" as="geometry">
            <mxPoint x="545" y="740" as="sourcePoint" />
            <mxPoint x="490.25346637197003" y="762.7553560046003" as="targetPoint" />
          </mxGeometry>
        </mxCell>
        <mxCell id="j_SZXXdtGfIgWa1YjvlN-117" value="" style="endArrow=classic;html=1;exitX=0.5;exitY=1;exitDx=0;exitDy=0;entryX=0.5;entryY=0;entryDx=0;entryDy=0;" parent="1" source="j_SZXXdtGfIgWa1YjvlN-109" target="j_SZXXdtGfIgWa1YjvlN-124" edge="1">
          <mxGeometry width="50" height="50" relative="1" as="geometry">
            <mxPoint x="505" y="750" as="sourcePoint" />
            <mxPoint x="435" y="760" as="targetPoint" />
          </mxGeometry>
        </mxCell>
        <mxCell id="j_SZXXdtGfIgWa1YjvlN-119" value="" style="endArrow=classic;html=1;exitX=0;exitY=1;exitDx=0;exitDy=0;entryX=1;entryY=0;entryDx=0;entryDy=0;" parent="1" target="j_SZXXdtGfIgWa1YjvlN-150" edge="1" source="j_SZXXdtGfIgWa1YjvlN-110">
          <mxGeometry width="50" height="50" relative="1" as="geometry">
            <mxPoint x="225.25126265847098" y="714.1421356237308" as="sourcePoint" />
            <mxPoint x="46.25" y="707.4999999999998" as="targetPoint" />
          </mxGeometry>
        </mxCell>
        <mxCell id="j_SZXXdtGfIgWa1YjvlN-120" value="" style="endArrow=classic;html=1;entryX=1;entryY=0;entryDx=0;entryDy=0;exitX=0;exitY=0.5;exitDx=0;exitDy=0;" parent="1" source="j_SZXXdtGfIgWa1YjvlN-124" target="j_SZXXdtGfIgWa1YjvlN-126" edge="1">
          <mxGeometry width="50" height="50" relative="1" as="geometry">
            <mxPoint x="400" y="780" as="sourcePoint" />
            <mxPoint x="106.50126265847075" y="938.3578643762689" as="targetPoint" />
          </mxGeometry>
        </mxCell>
        <mxCell id="j_SZXXdtGfIgWa1YjvlN-124" value="(1,1,R)" style="ellipse;whiteSpace=wrap;html=1;" parent="1" vertex="1">
          <mxGeometry x="405" y="780" width="70" height="40" as="geometry" />
        </mxCell>
        <mxCell id="j_SZXXdtGfIgWa1YjvlN-125" value="R(0,1)" style="rhombus;whiteSpace=wrap;html=1;" parent="1" vertex="1">
          <mxGeometry x="612.5" y="850" width="95" height="50" as="geometry" />
        </mxCell>
        <mxCell id="j_SZXXdtGfIgWa1YjvlN-126" value="R(1,0)" style="rhombus;whiteSpace=wrap;html=1;" parent="1" vertex="1">
          <mxGeometry x="336.5" y="850" width="95" height="50" as="geometry" />
        </mxCell>
        <mxCell id="j_SZXXdtGfIgWa1YjvlN-127" value="" style="endArrow=classic;html=1;exitX=0.5;exitY=1;exitDx=0;exitDy=0;entryX=0;entryY=0;entryDx=0;entryDy=0;" parent="1" source="j_SZXXdtGfIgWa1YjvlN-101" target="j_SZXXdtGfIgWa1YjvlN-106" edge="1">
          <mxGeometry width="50" height="50" relative="1" as="geometry">
            <mxPoint x="80" y="610" as="sourcePoint" />
            <mxPoint x="116.25" y="662.5" as="targetPoint" />
          </mxGeometry>
        </mxCell>
        <mxCell id="j_SZXXdtGfIgWa1YjvlN-132" value="(3,1,L)" style="ellipse;whiteSpace=wrap;html=1;aspect=fixed;" parent="1" vertex="1">
          <mxGeometry x="92.5" y="570" width="60" height="60" as="geometry" />
        </mxCell>
        <mxCell id="j_SZXXdtGfIgWa1YjvlN-135" value="L(1,1)" style="rhombus;whiteSpace=wrap;html=1;" parent="1" vertex="1">
          <mxGeometry y="630" width="95" height="50" as="geometry" />
        </mxCell>
        <mxCell id="j_SZXXdtGfIgWa1YjvlN-137" value="L(2,0)" style="rhombus;whiteSpace=wrap;html=1;" parent="1" vertex="1">
          <mxGeometry x="227.5" y="700" width="95" height="50" as="geometry" />
        </mxCell>
        <mxCell id="j_SZXXdtGfIgWa1YjvlN-140" value="" style="endArrow=classic;html=1;exitX=1;exitY=1;exitDx=0;exitDy=0;entryX=0;entryY=0;entryDx=0;entryDy=0;" parent="1" source="j_SZXXdtGfIgWa1YjvlN-132" target="j_SZXXdtGfIgWa1YjvlN-137" edge="1">
          <mxGeometry width="50" height="50" relative="1" as="geometry">
            <mxPoint x="-330" y="610" as="sourcePoint" />
            <mxPoint x="-384.74653362802997" y="632.7553560046003" as="targetPoint" />
          </mxGeometry>
        </mxCell>
        <mxCell id="j_SZXXdtGfIgWa1YjvlN-141" value="" style="endArrow=classic;html=1;exitX=1;exitY=1;exitDx=0;exitDy=0;entryX=0;entryY=0;entryDx=0;entryDy=0;" parent="1" source="j_SZXXdtGfIgWa1YjvlN-137" target="j_SZXXdtGfIgWa1YjvlN-124" edge="1">
          <mxGeometry width="50" height="50" relative="1" as="geometry">
            <mxPoint x="-310" y="770" as="sourcePoint" />
            <mxPoint x="-239.43080535473632" y="725.6784934127406" as="targetPoint" />
          </mxGeometry>
        </mxCell>
        <mxCell id="j_SZXXdtGfIgWa1YjvlN-142" value="" style="endArrow=classic;html=1;exitX=0.5;exitY=1;exitDx=0;exitDy=0;" parent="1" source="j_SZXXdtGfIgWa1YjvlN-132" target="j_SZXXdtGfIgWa1YjvlN-135" edge="1">
          <mxGeometry width="50" height="50" relative="1" as="geometry">
            <mxPoint x="-290" y="780" as="sourcePoint" />
            <mxPoint x="-344.74653362802997" y="802.7553560046003" as="targetPoint" />
          </mxGeometry>
        </mxCell>
        <mxCell id="j_SZXXdtGfIgWa1YjvlN-143" value="" style="endArrow=classic;html=1;exitX=0.5;exitY=1;exitDx=0;exitDy=0;entryX=0;entryY=0;entryDx=0;entryDy=0;" parent="1" source="j_SZXXdtGfIgWa1YjvlN-135" edge="1" target="j_SZXXdtGfIgWa1YjvlN-150">
          <mxGeometry width="50" height="50" relative="1" as="geometry">
            <mxPoint x="-330" y="790" as="sourcePoint" />
            <mxPoint x="-400" y="800" as="targetPoint" />
          </mxGeometry>
        </mxCell>
        <mxCell id="j_SZXXdtGfIgWa1YjvlN-146" value="" style="endArrow=classic;html=1;exitX=0;exitY=1;exitDx=0;exitDy=0;entryX=1;entryY=0;entryDx=0;entryDy=0;" parent="1" target="j_SZXXdtGfIgWa1YjvlN-152" edge="1" source="j_SZXXdtGfIgWa1YjvlN-150">
          <mxGeometry width="50" height="50" relative="1" as="geometry">
            <mxPoint x="-435" y="820" as="sourcePoint" />
            <mxPoint x="-728.4987373415292" y="978.3578643762689" as="targetPoint" />
          </mxGeometry>
        </mxCell>
        <mxCell id="j_SZXXdtGfIgWa1YjvlN-148" value="" style="endArrow=classic;html=1;exitX=1;exitY=1;exitDx=0;exitDy=0;entryX=0;entryY=0;entryDx=0;entryDy=0;" parent="1" target="j_SZXXdtGfIgWa1YjvlN-151" edge="1" source="j_SZXXdtGfIgWa1YjvlN-150">
          <mxGeometry width="50" height="50" relative="1" as="geometry">
            <mxPoint x="-365" y="820" as="sourcePoint" />
            <mxPoint x="-410" y="920" as="targetPoint" />
          </mxGeometry>
        </mxCell>
        <mxCell id="j_SZXXdtGfIgWa1YjvlN-150" value="(2,0,R)" style="ellipse;whiteSpace=wrap;html=1;" parent="1" vertex="1">
          <mxGeometry x="63.75" y="690" width="70" height="40" as="geometry" />
        </mxCell>
        <mxCell id="j_SZXXdtGfIgWa1YjvlN-151" value="R(0,1)" style="rhombus;whiteSpace=wrap;html=1;" parent="1" vertex="1">
          <mxGeometry x="133.75" y="855" width="95" height="50" as="geometry" />
        </mxCell>
        <mxCell id="j_SZXXdtGfIgWa1YjvlN-152" value="R(1,0)" style="rhombus;whiteSpace=wrap;html=1;" parent="1" vertex="1">
          <mxGeometry y="860" width="95" height="50" as="geometry" />
        </mxCell>
        <mxCell id="j_SZXXdtGfIgWa1YjvlN-153" value="" style="endArrow=classic;html=1;exitX=0;exitY=1;exitDx=0;exitDy=0;entryX=0;entryY=0;entryDx=0;entryDy=0;" parent="1" source="j_SZXXdtGfIgWa1YjvlN-31" target="j_SZXXdtGfIgWa1YjvlN-132" edge="1">
          <mxGeometry width="50" height="50" relative="1" as="geometry">
            <mxPoint x="-280" y="560" as="sourcePoint" />
            <mxPoint x="-211.50126265847098" y="598.3578643762692" as="targetPoint" />
          </mxGeometry>
        </mxCell>
        <mxCell id="j_SZXXdtGfIgWa1YjvlN-154" value="" style="endArrow=classic;html=1;exitX=0;exitY=1;exitDx=0;exitDy=0;entryX=1;entryY=0.5;entryDx=0;entryDy=0;" parent="1" source="j_SZXXdtGfIgWa1YjvlN-102" target="j_SZXXdtGfIgWa1YjvlN-132" edge="1">
          <mxGeometry width="50" height="50" relative="1" as="geometry">
            <mxPoint x="-250" y="610" as="sourcePoint" />
            <mxPoint x="-181.50126265847098" y="648.3578643762692" as="targetPoint" />
          </mxGeometry>
        </mxCell>
        <mxCell id="j_SZXXdtGfIgWa1YjvlN-156" value="(3,0,L)" style="ellipse;whiteSpace=wrap;html=1;aspect=fixed;" parent="1" vertex="1">
          <mxGeometry y="980" width="60" height="60" as="geometry" />
        </mxCell>
        <mxCell id="j_SZXXdtGfIgWa1YjvlN-157" value="(1,0,R)" style="ellipse;whiteSpace=wrap;html=1;" parent="1" vertex="1">
          <mxGeometry x="82.5" y="1195" width="70" height="40" as="geometry" />
        </mxCell>
        <mxCell id="j_SZXXdtGfIgWa1YjvlN-159" value="L(2,0)" style="rhombus;whiteSpace=wrap;html=1;" parent="1" vertex="1">
          <mxGeometry y="1120" width="95" height="50" as="geometry" />
        </mxCell>
        <mxCell id="j_SZXXdtGfIgWa1YjvlN-160" value="" style="endArrow=classic;html=1;exitX=1;exitY=1;exitDx=0;exitDy=0;entryX=0;entryY=0;entryDx=0;entryDy=0;" parent="1" source="j_SZXXdtGfIgWa1YjvlN-156" target="j_SZXXdtGfIgWa1YjvlN-159" edge="1">
          <mxGeometry width="50" height="50" relative="1" as="geometry">
            <mxPoint x="-563.25" y="970" as="sourcePoint" />
            <mxPoint x="-617.99653362803" y="992.7553560046003" as="targetPoint" />
          </mxGeometry>
        </mxCell>
        <mxCell id="j_SZXXdtGfIgWa1YjvlN-161" value="" style="endArrow=classic;html=1;exitX=1;exitY=1;exitDx=0;exitDy=0;entryX=0;entryY=0;entryDx=0;entryDy=0;" parent="1" source="j_SZXXdtGfIgWa1YjvlN-159" target="j_SZXXdtGfIgWa1YjvlN-157" edge="1">
          <mxGeometry width="50" height="50" relative="1" as="geometry">
            <mxPoint x="-543.25" y="1130" as="sourcePoint" />
            <mxPoint x="-597.99653362803" y="1152.7553560046003" as="targetPoint" />
          </mxGeometry>
        </mxCell>
        <mxCell id="j_SZXXdtGfIgWa1YjvlN-165" value="R(1,0)" style="rhombus;whiteSpace=wrap;html=1;" parent="1" vertex="1">
          <mxGeometry y="1280" width="95" height="50" as="geometry" />
        </mxCell>
        <mxCell id="j_SZXXdtGfIgWa1YjvlN-167" value="" style="endArrow=classic;html=1;exitX=0.5;exitY=1;exitDx=0;exitDy=0;entryX=1;entryY=0;entryDx=0;entryDy=0;" parent="1" source="j_SZXXdtGfIgWa1YjvlN-157" target="j_SZXXdtGfIgWa1YjvlN-165" edge="1">
          <mxGeometry width="50" height="50" relative="1" as="geometry">
            <mxPoint x="-583.25" y="1230" as="sourcePoint" />
            <mxPoint x="-583.25" y="1280" as="targetPoint" />
          </mxGeometry>
        </mxCell>
        <mxCell id="j_SZXXdtGfIgWa1YjvlN-170" value="" style="endArrow=classic;html=1;exitX=0;exitY=1;exitDx=0;exitDy=0;entryX=1;entryY=0;entryDx=0;entryDy=0;" parent="1" source="j_SZXXdtGfIgWa1YjvlN-152" target="j_SZXXdtGfIgWa1YjvlN-156" edge="1">
          <mxGeometry width="50" height="50" relative="1" as="geometry">
            <mxPoint x="-425" y="830" as="sourcePoint" />
            <mxPoint x="-443.75" y="882.5" as="targetPoint" />
          </mxGeometry>
        </mxCell>
        <mxCell id="j_SZXXdtGfIgWa1YjvlN-171" value="(2,0,L)" style="ellipse;whiteSpace=wrap;html=1;aspect=fixed;" parent="1" vertex="1">
          <mxGeometry x="32.5" y="1420" width="60" height="60" as="geometry" />
        </mxCell>
        <mxCell id="j_SZXXdtGfIgWa1YjvlN-173" value="L(2,0)" style="rhombus;whiteSpace=wrap;html=1;" parent="1" vertex="1">
          <mxGeometry x="160" y="1460" width="95" height="50" as="geometry" />
        </mxCell>
        <mxCell id="j_SZXXdtGfIgWa1YjvlN-174" value="" style="endArrow=classic;html=1;exitX=1;exitY=1;exitDx=0;exitDy=0;entryX=0;entryY=0;entryDx=0;entryDy=0;" parent="1" source="j_SZXXdtGfIgWa1YjvlN-171" target="j_SZXXdtGfIgWa1YjvlN-173" edge="1">
          <mxGeometry width="50" height="50" relative="1" as="geometry">
            <mxPoint x="-310" y="1210" as="sourcePoint" />
            <mxPoint x="-364.74653362802997" y="1232.7553560046003" as="targetPoint" />
          </mxGeometry>
        </mxCell>
        <mxCell id="j_SZXXdtGfIgWa1YjvlN-175" value="" style="endArrow=classic;html=1;exitX=1;exitY=1;exitDx=0;exitDy=0;entryX=0;entryY=0.5;entryDx=0;entryDy=0;" parent="1" source="j_SZXXdtGfIgWa1YjvlN-173" target="yAPBlTvcmijGDb-cF1Fy-14" edge="1">
          <mxGeometry width="50" height="50" relative="1" as="geometry">
            <mxPoint x="-290" y="1370" as="sourcePoint" />
            <mxPoint x="-219.74873734152902" y="1325.8578643762692" as="targetPoint" />
          </mxGeometry>
        </mxCell>
        <mxCell id="j_SZXXdtGfIgWa1YjvlN-178" value="" style="endArrow=classic;html=1;exitX=1;exitY=1;exitDx=0;exitDy=0;entryX=0;entryY=0;entryDx=0;entryDy=0;" parent="1" source="j_SZXXdtGfIgWa1YjvlN-165" target="j_SZXXdtGfIgWa1YjvlN-171" edge="1">
          <mxGeometry width="50" height="50" relative="1" as="geometry">
            <mxPoint x="-420" y="1230" as="sourcePoint" />
            <mxPoint x="-433.75" y="1272.5" as="targetPoint" />
          </mxGeometry>
        </mxCell>
        <mxCell id="j_SZXXdtGfIgWa1YjvlN-180" value="(2,1,L)" style="ellipse;whiteSpace=wrap;html=1;aspect=fixed;" parent="1" vertex="1">
          <mxGeometry x="187.75" y="920" width="60" height="60" as="geometry" />
        </mxCell>
        <mxCell id="j_SZXXdtGfIgWa1YjvlN-181" value="(0,1,R)" style="ellipse;whiteSpace=wrap;html=1;" parent="1" vertex="1">
          <mxGeometry x="367.75" y="1040" width="70" height="40" as="geometry" />
        </mxCell>
        <mxCell id="j_SZXXdtGfIgWa1YjvlN-182" value="L(1,1)" style="rhombus;whiteSpace=wrap;html=1;" parent="1" vertex="1">
          <mxGeometry x="170.25" y="1020" width="95" height="50" as="geometry" />
        </mxCell>
        <mxCell id="j_SZXXdtGfIgWa1YjvlN-183" value="L(2,0)" style="rhombus;whiteSpace=wrap;html=1;" parent="1" vertex="1">
          <mxGeometry x="272.75" y="980" width="95" height="50" as="geometry" />
        </mxCell>
        <mxCell id="j_SZXXdtGfIgWa1YjvlN-184" value="" style="endArrow=classic;html=1;exitX=1;exitY=1;exitDx=0;exitDy=0;entryX=0;entryY=0;entryDx=0;entryDy=0;" parent="1" source="j_SZXXdtGfIgWa1YjvlN-180" target="j_SZXXdtGfIgWa1YjvlN-183" edge="1">
          <mxGeometry width="50" height="50" relative="1" as="geometry">
            <mxPoint x="287.75" y="930" as="sourcePoint" />
            <mxPoint x="233.00346637197003" y="952.7553560046003" as="targetPoint" />
          </mxGeometry>
        </mxCell>
        <mxCell id="j_SZXXdtGfIgWa1YjvlN-185" value="" style="endArrow=classic;html=1;exitX=1;exitY=1;exitDx=0;exitDy=0;entryX=0;entryY=0;entryDx=0;entryDy=0;" parent="1" source="j_SZXXdtGfIgWa1YjvlN-183" target="j_SZXXdtGfIgWa1YjvlN-181" edge="1">
          <mxGeometry width="50" height="50" relative="1" as="geometry">
            <mxPoint x="307.75" y="1090" as="sourcePoint" />
            <mxPoint x="253.00346637197003" y="1112.7553560046003" as="targetPoint" />
          </mxGeometry>
        </mxCell>
        <mxCell id="j_SZXXdtGfIgWa1YjvlN-186" value="" style="endArrow=classic;html=1;exitX=0.5;exitY=1;exitDx=0;exitDy=0;" parent="1" source="j_SZXXdtGfIgWa1YjvlN-180" target="j_SZXXdtGfIgWa1YjvlN-182" edge="1">
          <mxGeometry width="50" height="50" relative="1" as="geometry">
            <mxPoint x="327.75" y="1100" as="sourcePoint" />
            <mxPoint x="273.00346637197003" y="1122.7553560046003" as="targetPoint" />
          </mxGeometry>
        </mxCell>
        <mxCell id="j_SZXXdtGfIgWa1YjvlN-187" value="" style="endArrow=classic;html=1;exitX=0.5;exitY=1;exitDx=0;exitDy=0;entryX=1;entryY=0;entryDx=0;entryDy=0;" parent="1" source="j_SZXXdtGfIgWa1YjvlN-182" target="j_SZXXdtGfIgWa1YjvlN-157" edge="1">
          <mxGeometry width="50" height="50" relative="1" as="geometry">
            <mxPoint x="-1" y="1110" as="sourcePoint" />
            <mxPoint x="159.99873734152902" y="1145.857864376269" as="targetPoint" />
          </mxGeometry>
        </mxCell>
        <mxCell id="j_SZXXdtGfIgWa1YjvlN-189" value="R(1,0)" style="rhombus;whiteSpace=wrap;html=1;" parent="1" vertex="1">
          <mxGeometry x="263.75" y="1110" width="95" height="50" as="geometry" />
        </mxCell>
        <mxCell id="j_SZXXdtGfIgWa1YjvlN-190" value="" style="endArrow=classic;html=1;exitX=1;exitY=1;exitDx=0;exitDy=0;entryX=0;entryY=1;entryDx=0;entryDy=0;" parent="1" source="j_SZXXdtGfIgWa1YjvlN-157" target="j_SZXXdtGfIgWa1YjvlN-193" edge="1">
          <mxGeometry width="50" height="50" relative="1" as="geometry">
            <mxPoint x="-90" y="1140" as="sourcePoint" />
            <mxPoint x="-135" y="1240" as="targetPoint" />
          </mxGeometry>
        </mxCell>
        <mxCell id="j_SZXXdtGfIgWa1YjvlN-191" value="" style="endArrow=classic;html=1;exitX=0.5;exitY=1;exitDx=0;exitDy=0;entryX=1;entryY=0;entryDx=0;entryDy=0;" parent="1" source="j_SZXXdtGfIgWa1YjvlN-181" target="j_SZXXdtGfIgWa1YjvlN-189" edge="1">
          <mxGeometry width="50" height="50" relative="1" as="geometry">
            <mxPoint x="267.75" y="1190" as="sourcePoint" />
            <mxPoint x="389" y="1122.5" as="targetPoint" />
          </mxGeometry>
        </mxCell>
        <mxCell id="j_SZXXdtGfIgWa1YjvlN-193" value="R(0,1)" style="rhombus;whiteSpace=wrap;html=1;" parent="1" vertex="1">
          <mxGeometry x="211.25" y="1180" width="95" height="50" as="geometry" />
        </mxCell>
        <mxCell id="yAPBlTvcmijGDb-cF1Fy-14" value="(0,0,R)" style="ellipse;whiteSpace=wrap;html=1;fillColor=#d5e8d4;strokeColor=#82b366;" parent="1" vertex="1">
          <mxGeometry x="472.5" y="1450" width="70" height="40" as="geometry" />
        </mxCell>
        <mxCell id="yAPBlTvcmijGDb-cF1Fy-17" value="" style="endArrow=classic;html=1;exitX=1;exitY=1;exitDx=0;exitDy=0;entryX=0;entryY=1;entryDx=0;entryDy=0;" parent="1" source="j_SZXXdtGfIgWa1YjvlN-193" target="yAPBlTvcmijGDb-cF1Fy-87" edge="1">
          <mxGeometry width="50" height="50" relative="1" as="geometry">
            <mxPoint x="-60" y="1240" as="sourcePoint" />
            <mxPoint x="105" y="1230" as="targetPoint" />
          </mxGeometry>
        </mxCell>
        <mxCell id="yAPBlTvcmijGDb-cF1Fy-18" value="" style="endArrow=classic;html=1;exitX=1;exitY=1;exitDx=0;exitDy=0;entryX=0;entryY=0;entryDx=0;entryDy=0;" parent="1" source="j_SZXXdtGfIgWa1YjvlN-189" target="yAPBlTvcmijGDb-cF1Fy-87" edge="1">
          <mxGeometry width="50" height="50" relative="1" as="geometry">
            <mxPoint x="120" y="1150" as="sourcePoint" />
            <mxPoint x="113.06834195268607" y="1209.5304524891735" as="targetPoint" />
          </mxGeometry>
        </mxCell>
        <mxCell id="yAPBlTvcmijGDb-cF1Fy-19" value="" style="endArrow=classic;html=1;exitX=1;exitY=1;exitDx=0;exitDy=0;entryX=0;entryY=0.5;entryDx=0;entryDy=0;" parent="1" source="j_SZXXdtGfIgWa1YjvlN-151" target="j_SZXXdtGfIgWa1YjvlN-180" edge="1">
          <mxGeometry width="50" height="50" relative="1" as="geometry">
            <mxPoint x="-190" y="920" as="sourcePoint" />
            <mxPoint x="-153.75" y="972.5" as="targetPoint" />
          </mxGeometry>
        </mxCell>
        <mxCell id="yAPBlTvcmijGDb-cF1Fy-21" value="(1,3,L)" style="ellipse;whiteSpace=wrap;html=1;aspect=fixed;" parent="1" vertex="1">
          <mxGeometry x="928" y="600" width="60" height="60" as="geometry" />
        </mxCell>
        <mxCell id="yAPBlTvcmijGDb-cF1Fy-24" value="L(1,1)" style="rhombus;whiteSpace=wrap;html=1;" parent="1" vertex="1">
          <mxGeometry x="910.5" y="700" width="95" height="50" as="geometry" />
        </mxCell>
        <mxCell id="yAPBlTvcmijGDb-cF1Fy-25" value="L(0,2)" style="rhombus;whiteSpace=wrap;html=1;" parent="1" vertex="1">
          <mxGeometry x="808" y="660" width="95" height="50" as="geometry" />
        </mxCell>
        <mxCell id="yAPBlTvcmijGDb-cF1Fy-27" value="" style="endArrow=classic;html=1;exitX=0;exitY=1;exitDx=0;exitDy=0;" parent="1" source="yAPBlTvcmijGDb-cF1Fy-21" target="yAPBlTvcmijGDb-cF1Fy-25" edge="1">
          <mxGeometry width="50" height="50" relative="1" as="geometry">
            <mxPoint x="898" y="760" as="sourcePoint" />
            <mxPoint x="948" y="710" as="targetPoint" />
          </mxGeometry>
        </mxCell>
        <mxCell id="yAPBlTvcmijGDb-cF1Fy-28" value="" style="endArrow=classic;html=1;exitX=0;exitY=1;exitDx=0;exitDy=0;entryX=1;entryY=0;entryDx=0;entryDy=0;" parent="1" source="yAPBlTvcmijGDb-cF1Fy-25" target="j_SZXXdtGfIgWa1YjvlN-124" edge="1">
          <mxGeometry width="50" height="50" relative="1" as="geometry">
            <mxPoint x="1108.75" y="750" as="sourcePoint" />
            <mxPoint x="1008.498737341529" y="735.8578643762692" as="targetPoint" />
          </mxGeometry>
        </mxCell>
        <mxCell id="yAPBlTvcmijGDb-cF1Fy-31" value="" style="endArrow=classic;html=1;exitX=0.5;exitY=1;exitDx=0;exitDy=0;" parent="1" source="yAPBlTvcmijGDb-cF1Fy-21" target="yAPBlTvcmijGDb-cF1Fy-24" edge="1">
          <mxGeometry width="50" height="50" relative="1" as="geometry">
            <mxPoint x="1068" y="780" as="sourcePoint" />
            <mxPoint x="1013.25346637197" y="802.7553560046003" as="targetPoint" />
          </mxGeometry>
        </mxCell>
        <mxCell id="yAPBlTvcmijGDb-cF1Fy-32" value="" style="endArrow=classic;html=1;exitX=0.5;exitY=1;exitDx=0;exitDy=0;entryX=0.5;entryY=0;entryDx=0;entryDy=0;" parent="1" source="yAPBlTvcmijGDb-cF1Fy-24" edge="1">
          <mxGeometry width="50" height="50" relative="1" as="geometry">
            <mxPoint x="1028" y="790" as="sourcePoint" />
            <mxPoint x="958" y="800" as="targetPoint" />
          </mxGeometry>
        </mxCell>
        <mxCell id="yAPBlTvcmijGDb-cF1Fy-35" value="" style="endArrow=classic;html=1;exitX=0;exitY=0.5;exitDx=0;exitDy=0;entryX=1;entryY=0;entryDx=0;entryDy=0;" parent="1" target="yAPBlTvcmijGDb-cF1Fy-41" edge="1">
          <mxGeometry width="50" height="50" relative="1" as="geometry">
            <mxPoint x="923" y="820" as="sourcePoint" />
            <mxPoint x="629.5012626584708" y="978.3578643762689" as="targetPoint" />
          </mxGeometry>
        </mxCell>
        <mxCell id="yAPBlTvcmijGDb-cF1Fy-37" value="" style="endArrow=classic;html=1;exitX=1;exitY=0.5;exitDx=0;exitDy=0;entryX=0;entryY=0;entryDx=0;entryDy=0;" parent="1" target="yAPBlTvcmijGDb-cF1Fy-40" edge="1">
          <mxGeometry width="50" height="50" relative="1" as="geometry">
            <mxPoint x="993" y="820" as="sourcePoint" />
            <mxPoint x="948" y="920" as="targetPoint" />
          </mxGeometry>
        </mxCell>
        <mxCell id="yAPBlTvcmijGDb-cF1Fy-39" value="(0,2,R)" style="ellipse;whiteSpace=wrap;html=1;" parent="1" vertex="1">
          <mxGeometry x="923" y="800" width="70" height="40" as="geometry" />
        </mxCell>
        <mxCell id="yAPBlTvcmijGDb-cF1Fy-40" value="R(0,1)" style="rhombus;whiteSpace=wrap;html=1;" parent="1" vertex="1">
          <mxGeometry x="1005" y="870" width="95" height="50" as="geometry" />
        </mxCell>
        <mxCell id="yAPBlTvcmijGDb-cF1Fy-41" value="R(1,0)" style="rhombus;whiteSpace=wrap;html=1;" parent="1" vertex="1">
          <mxGeometry x="755.5" y="860" width="95" height="50" as="geometry" />
        </mxCell>
        <mxCell id="yAPBlTvcmijGDb-cF1Fy-42" value="" style="endArrow=classic;html=1;exitX=1;exitY=1;exitDx=0;exitDy=0;entryX=1;entryY=0;entryDx=0;entryDy=0;" parent="1" source="j_SZXXdtGfIgWa1YjvlN-53" target="yAPBlTvcmijGDb-cF1Fy-21" edge="1">
          <mxGeometry width="50" height="50" relative="1" as="geometry">
            <mxPoint x="930" y="560" as="sourcePoint" />
            <mxPoint x="998.6987704918033" y="556.9467213114754" as="targetPoint" />
          </mxGeometry>
        </mxCell>
        <mxCell id="yAPBlTvcmijGDb-cF1Fy-43" value="" style="endArrow=classic;html=1;exitX=1;exitY=1;exitDx=0;exitDy=0;entryX=0;entryY=0.5;entryDx=0;entryDy=0;" parent="1" source="j_SZXXdtGfIgWa1YjvlN-103" target="yAPBlTvcmijGDb-cF1Fy-21" edge="1">
          <mxGeometry width="50" height="50" relative="1" as="geometry">
            <mxPoint x="960" y="620" as="sourcePoint" />
            <mxPoint x="1028.6987704918033" y="616.9467213114754" as="targetPoint" />
          </mxGeometry>
        </mxCell>
        <mxCell id="yAPBlTvcmijGDb-cF1Fy-44" value="(0,3,L)" style="ellipse;whiteSpace=wrap;html=1;aspect=fixed;" parent="1" vertex="1">
          <mxGeometry x="1035" y="1120" width="60" height="60" as="geometry" />
        </mxCell>
        <mxCell id="yAPBlTvcmijGDb-cF1Fy-45" value="(0,1,R)" style="ellipse;whiteSpace=wrap;html=1;" parent="1" vertex="1">
          <mxGeometry x="845" y="1240" width="70" height="40" as="geometry" />
        </mxCell>
        <mxCell id="yAPBlTvcmijGDb-cF1Fy-47" value="L(0,2)" style="rhombus;whiteSpace=wrap;html=1;" parent="1" vertex="1">
          <mxGeometry x="915" y="1180" width="95" height="50" as="geometry" />
        </mxCell>
        <mxCell id="yAPBlTvcmijGDb-cF1Fy-48" value="" style="endArrow=classic;html=1;exitX=0;exitY=1;exitDx=0;exitDy=0;" parent="1" source="yAPBlTvcmijGDb-cF1Fy-44" target="yAPBlTvcmijGDb-cF1Fy-47" edge="1">
          <mxGeometry width="50" height="50" relative="1" as="geometry">
            <mxPoint x="1005" y="1280" as="sourcePoint" />
            <mxPoint x="1055" y="1230" as="targetPoint" />
          </mxGeometry>
        </mxCell>
        <mxCell id="yAPBlTvcmijGDb-cF1Fy-49" value="" style="endArrow=classic;html=1;exitX=0;exitY=1;exitDx=0;exitDy=0;entryX=1;entryY=0;entryDx=0;entryDy=0;" parent="1" source="yAPBlTvcmijGDb-cF1Fy-47" edge="1">
          <mxGeometry width="50" height="50" relative="1" as="geometry">
            <mxPoint x="1005" y="1260" as="sourcePoint" />
            <mxPoint x="904.7487373415288" y="1245.8578643762692" as="targetPoint" />
          </mxGeometry>
        </mxCell>
        <mxCell id="yAPBlTvcmijGDb-cF1Fy-52" value="R(0,1)" style="rhombus;whiteSpace=wrap;html=1;" parent="1" vertex="1">
          <mxGeometry x="900" y="1300" width="95" height="50" as="geometry" />
        </mxCell>
        <mxCell id="yAPBlTvcmijGDb-cF1Fy-53" value="" style="endArrow=classic;html=1;exitX=0;exitY=1;exitDx=0;exitDy=0;entryX=0;entryY=0;entryDx=0;entryDy=0;" parent="1" target="yAPBlTvcmijGDb-cF1Fy-52" edge="1">
          <mxGeometry width="50" height="50" relative="1" as="geometry">
            <mxPoint x="855.2512626584712" y="1274.1421356237308" as="sourcePoint" />
            <mxPoint x="840.9987373415292" y="1318.357864376269" as="targetPoint" />
          </mxGeometry>
        </mxCell>
        <mxCell id="yAPBlTvcmijGDb-cF1Fy-59" value="" style="endArrow=classic;html=1;exitX=0.5;exitY=1;exitDx=0;exitDy=0;entryX=1;entryY=0;entryDx=0;entryDy=0;" parent="1" source="yAPBlTvcmijGDb-cF1Fy-40" target="yAPBlTvcmijGDb-cF1Fy-44" edge="1">
          <mxGeometry width="50" height="50" relative="1" as="geometry">
            <mxPoint x="1010" y="960" as="sourcePoint" />
            <mxPoint x="1046.25" y="1012.5" as="targetPoint" />
          </mxGeometry>
        </mxCell>
        <mxCell id="yAPBlTvcmijGDb-cF1Fy-60" value="(0,2,L)" style="ellipse;whiteSpace=wrap;html=1;aspect=fixed;" parent="1" vertex="1">
          <mxGeometry x="996.25" y="1420" width="60" height="60" as="geometry" />
        </mxCell>
        <mxCell id="yAPBlTvcmijGDb-cF1Fy-62" value="(0,2)" style="rhombus;whiteSpace=wrap;html=1;" parent="1" vertex="1">
          <mxGeometry x="876.25" y="1480" width="95" height="50" as="geometry" />
        </mxCell>
        <mxCell id="yAPBlTvcmijGDb-cF1Fy-63" value="" style="endArrow=classic;html=1;exitX=0;exitY=1;exitDx=0;exitDy=0;" parent="1" source="yAPBlTvcmijGDb-cF1Fy-60" target="yAPBlTvcmijGDb-cF1Fy-62" edge="1">
          <mxGeometry width="50" height="50" relative="1" as="geometry">
            <mxPoint x="966.25" y="1580" as="sourcePoint" />
            <mxPoint x="1016.25" y="1530" as="targetPoint" />
          </mxGeometry>
        </mxCell>
        <mxCell id="yAPBlTvcmijGDb-cF1Fy-64" value="" style="endArrow=classic;html=1;exitX=0;exitY=1;exitDx=0;exitDy=0;entryX=1;entryY=0.5;entryDx=0;entryDy=0;" parent="1" source="yAPBlTvcmijGDb-cF1Fy-62" target="yAPBlTvcmijGDb-cF1Fy-14" edge="1">
          <mxGeometry width="50" height="50" relative="1" as="geometry">
            <mxPoint x="820" y="1440" as="sourcePoint" />
            <mxPoint x="719.7487373415288" y="1425.8578643762692" as="targetPoint" />
          </mxGeometry>
        </mxCell>
        <mxCell id="yAPBlTvcmijGDb-cF1Fy-67" value="" style="endArrow=classic;html=1;exitX=1;exitY=1;exitDx=0;exitDy=0;" parent="1" source="yAPBlTvcmijGDb-cF1Fy-52" target="yAPBlTvcmijGDb-cF1Fy-60" edge="1">
          <mxGeometry width="50" height="50" relative="1" as="geometry">
            <mxPoint x="866.25" y="1370" as="sourcePoint" />
            <mxPoint x="832.2487373415288" y="1398.3578643762692" as="targetPoint" />
          </mxGeometry>
        </mxCell>
        <mxCell id="yAPBlTvcmijGDb-cF1Fy-68" value="(1,2,L)" style="ellipse;whiteSpace=wrap;html=1;aspect=fixed;" parent="1" vertex="1">
          <mxGeometry x="792.5" y="920" width="60" height="60" as="geometry" />
        </mxCell>
        <mxCell id="yAPBlTvcmijGDb-cF1Fy-69" value="(1,0,R)" style="ellipse;whiteSpace=wrap;html=1;" parent="1" vertex="1">
          <mxGeometry x="602.5" y="1040" width="70" height="40" as="geometry" />
        </mxCell>
        <mxCell id="yAPBlTvcmijGDb-cF1Fy-70" value="L(1,1)" style="rhombus;whiteSpace=wrap;html=1;" parent="1" vertex="1">
          <mxGeometry x="775" y="1020" width="95" height="50" as="geometry" />
        </mxCell>
        <mxCell id="yAPBlTvcmijGDb-cF1Fy-71" value="L(0,2)" style="rhombus;whiteSpace=wrap;html=1;" parent="1" vertex="1">
          <mxGeometry x="672.5" y="980" width="95" height="50" as="geometry" />
        </mxCell>
        <mxCell id="yAPBlTvcmijGDb-cF1Fy-72" value="" style="endArrow=classic;html=1;exitX=0;exitY=1;exitDx=0;exitDy=0;" parent="1" source="yAPBlTvcmijGDb-cF1Fy-68" target="yAPBlTvcmijGDb-cF1Fy-71" edge="1">
          <mxGeometry width="50" height="50" relative="1" as="geometry">
            <mxPoint x="762.5" y="1080" as="sourcePoint" />
            <mxPoint x="812.5" y="1030" as="targetPoint" />
          </mxGeometry>
        </mxCell>
        <mxCell id="yAPBlTvcmijGDb-cF1Fy-73" value="" style="endArrow=classic;html=1;exitX=0;exitY=1;exitDx=0;exitDy=0;entryX=1;entryY=0;entryDx=0;entryDy=0;" parent="1" source="yAPBlTvcmijGDb-cF1Fy-71" edge="1">
          <mxGeometry width="50" height="50" relative="1" as="geometry">
            <mxPoint x="762.5" y="1060" as="sourcePoint" />
            <mxPoint x="662.2487373415288" y="1045.8578643762692" as="targetPoint" />
          </mxGeometry>
        </mxCell>
        <mxCell id="yAPBlTvcmijGDb-cF1Fy-74" value="" style="endArrow=classic;html=1;exitX=0.5;exitY=1;exitDx=0;exitDy=0;" parent="1" source="yAPBlTvcmijGDb-cF1Fy-68" target="yAPBlTvcmijGDb-cF1Fy-70" edge="1">
          <mxGeometry width="50" height="50" relative="1" as="geometry">
            <mxPoint x="932.5" y="1100" as="sourcePoint" />
            <mxPoint x="877.75346637197" y="1122.7553560046003" as="targetPoint" />
          </mxGeometry>
        </mxCell>
        <mxCell id="yAPBlTvcmijGDb-cF1Fy-75" value="" style="endArrow=classic;html=1;exitX=1;exitY=1;exitDx=0;exitDy=0;entryX=0;entryY=0;entryDx=0;entryDy=0;" parent="1" source="yAPBlTvcmijGDb-cF1Fy-70" target="yAPBlTvcmijGDb-cF1Fy-45" edge="1">
          <mxGeometry width="50" height="50" relative="1" as="geometry">
            <mxPoint x="797.5" y="1060" as="sourcePoint" />
            <mxPoint x="727.5" y="1070" as="targetPoint" />
          </mxGeometry>
        </mxCell>
        <mxCell id="yAPBlTvcmijGDb-cF1Fy-76" value="R(0,1)" style="rhombus;whiteSpace=wrap;html=1;" parent="1" vertex="1">
          <mxGeometry x="657.5" y="1100" width="95" height="50" as="geometry" />
        </mxCell>
        <mxCell id="yAPBlTvcmijGDb-cF1Fy-77" value="" style="endArrow=classic;html=1;exitX=0;exitY=1;exitDx=0;exitDy=0;entryX=0;entryY=0;entryDx=0;entryDy=0;" parent="1" target="yAPBlTvcmijGDb-cF1Fy-76" edge="1">
          <mxGeometry width="50" height="50" relative="1" as="geometry">
            <mxPoint x="612.7512626584712" y="1074.1421356237308" as="sourcePoint" />
            <mxPoint x="598.4987373415292" y="1118.357864376269" as="targetPoint" />
          </mxGeometry>
        </mxCell>
        <mxCell id="yAPBlTvcmijGDb-cF1Fy-78" value="" style="endArrow=classic;html=1;exitX=0;exitY=0.5;exitDx=0;exitDy=0;entryX=1;entryY=1;entryDx=0;entryDy=0;" parent="1" source="yAPBlTvcmijGDb-cF1Fy-45" target="yAPBlTvcmijGDb-cF1Fy-82" edge="1">
          <mxGeometry width="50" height="50" relative="1" as="geometry">
            <mxPoint x="692.5" y="1090" as="sourcePoint" />
            <mxPoint x="399.00126265847075" y="1248.357864376269" as="targetPoint" />
          </mxGeometry>
        </mxCell>
        <mxCell id="yAPBlTvcmijGDb-cF1Fy-82" value="R(1,0)" style="rhombus;whiteSpace=wrap;html=1;" parent="1" vertex="1">
          <mxGeometry x="710" y="1190" width="95" height="50" as="geometry" />
        </mxCell>
        <mxCell id="yAPBlTvcmijGDb-cF1Fy-83" value="" style="endArrow=classic;html=1;exitX=1;exitY=1;exitDx=0;exitDy=0;entryX=0;entryY=0.5;entryDx=0;entryDy=0;" parent="1" source="j_SZXXdtGfIgWa1YjvlN-125" target="yAPBlTvcmijGDb-cF1Fy-68" edge="1">
          <mxGeometry width="50" height="50" relative="1" as="geometry">
            <mxPoint x="715" y="940" as="sourcePoint" />
            <mxPoint x="660.2534663719703" y="962.7553560046003" as="targetPoint" />
          </mxGeometry>
        </mxCell>
        <mxCell id="yAPBlTvcmijGDb-cF1Fy-85" value="" style="endArrow=classic;html=1;exitX=0;exitY=0.5;exitDx=0;exitDy=0;entryX=0;entryY=0;entryDx=0;entryDy=0;" parent="1" source="yAPBlTvcmijGDb-cF1Fy-41" target="yAPBlTvcmijGDb-cF1Fy-68" edge="1">
          <mxGeometry width="50" height="50" relative="1" as="geometry">
            <mxPoint x="772.5" y="920" as="sourcePoint" />
            <mxPoint x="717.7534663719703" y="942.7553560046003" as="targetPoint" />
          </mxGeometry>
        </mxCell>
        <mxCell id="yAPBlTvcmijGDb-cF1Fy-87" value="(1,1,L)" style="ellipse;whiteSpace=wrap;html=1;aspect=fixed;" parent="1" vertex="1">
          <mxGeometry x="477.5" y="1180" width="60" height="60" as="geometry" />
        </mxCell>
        <mxCell id="yAPBlTvcmijGDb-cF1Fy-88" value="L(1,1)" style="rhombus;whiteSpace=wrap;html=1;" parent="1" vertex="1">
          <mxGeometry x="460" y="1280" width="95" height="50" as="geometry" />
        </mxCell>
        <mxCell id="yAPBlTvcmijGDb-cF1Fy-90" value="" style="endArrow=classic;html=1;exitX=0.5;exitY=1;exitDx=0;exitDy=0;" parent="1" source="yAPBlTvcmijGDb-cF1Fy-87" target="yAPBlTvcmijGDb-cF1Fy-88" edge="1">
          <mxGeometry width="50" height="50" relative="1" as="geometry">
            <mxPoint x="617.5" y="1360" as="sourcePoint" />
            <mxPoint x="562.75346637197" y="1382.7553560046003" as="targetPoint" />
          </mxGeometry>
        </mxCell>
        <mxCell id="yAPBlTvcmijGDb-cF1Fy-91" value="" style="endArrow=classic;html=1;exitX=0.5;exitY=1;exitDx=0;exitDy=0;entryX=0.5;entryY=0;entryDx=0;entryDy=0;" parent="1" source="yAPBlTvcmijGDb-cF1Fy-88" target="yAPBlTvcmijGDb-cF1Fy-14" edge="1">
          <mxGeometry width="50" height="50" relative="1" as="geometry">
            <mxPoint x="507.5" y="1270" as="sourcePoint" />
            <mxPoint x="437.5" y="1279.9999999999998" as="targetPoint" />
          </mxGeometry>
        </mxCell>
        <mxCell id="yAPBlTvcmijGDb-cF1Fy-93" value="" style="endArrow=classic;html=1;exitX=0;exitY=1;exitDx=0;exitDy=0;entryX=1;entryY=0;entryDx=0;entryDy=0;" parent="1" source="yAPBlTvcmijGDb-cF1Fy-76" target="yAPBlTvcmijGDb-cF1Fy-87" edge="1">
          <mxGeometry width="50" height="50" relative="1" as="geometry">
            <mxPoint x="540" y="1160" as="sourcePoint" />
            <mxPoint x="608.4987373415288" y="1198.357864376269" as="targetPoint" />
          </mxGeometry>
        </mxCell>
        <mxCell id="yAPBlTvcmijGDb-cF1Fy-94" value="" style="endArrow=classic;html=1;exitX=0;exitY=0.5;exitDx=0;exitDy=0;entryX=1;entryY=1;entryDx=0;entryDy=0;" parent="1" source="yAPBlTvcmijGDb-cF1Fy-82" target="yAPBlTvcmijGDb-cF1Fy-87" edge="1">
          <mxGeometry width="50" height="50" relative="1" as="geometry">
            <mxPoint x="560" y="1150" as="sourcePoint" />
            <mxPoint x="628.4987373415288" y="1188.357864376269" as="targetPoint" />
          </mxGeometry>
        </mxCell>
        <mxCell id="yAPBlTvcmijGDb-cF1Fy-96" value="" style="endArrow=classic;html=1;exitX=0;exitY=1;exitDx=0;exitDy=0;entryX=1;entryY=0;entryDx=0;entryDy=0;" parent="1" source="j_SZXXdtGfIgWa1YjvlN-126" target="j_SZXXdtGfIgWa1YjvlN-180" edge="1">
          <mxGeometry width="50" height="50" relative="1" as="geometry">
            <mxPoint x="532.75" y="860" as="sourcePoint" />
            <mxPoint x="514" y="912.5" as="targetPoint" />
          </mxGeometry>
        </mxCell>
        <mxCell id="yAPBlTvcmijGDb-cF1Fy-99" value="" style="endArrow=classic;html=1;exitX=1;exitY=0.5;exitDx=0;exitDy=0;entryX=0;entryY=0;entryDx=0;entryDy=0;" parent="1" source="j_SZXXdtGfIgWa1YjvlN-124" target="j_SZXXdtGfIgWa1YjvlN-125" edge="1">
          <mxGeometry width="50" height="50" relative="1" as="geometry">
            <mxPoint x="550" y="840" as="sourcePoint" />
            <mxPoint x="626.2499999999868" y="842.5" as="targetPoint" />
            <Array as="points" />
          </mxGeometry>
        </mxCell>
        <mxCell id="2_1Mj3gUdkKZx13iMkMR-2" value="" style="endArrow=classic;html=1;exitX=0;exitY=1;exitDx=0;exitDy=0;entryX=1;entryY=0;entryDx=0;entryDy=0;" edge="1" parent="1" source="j_SZXXdtGfIgWa1YjvlN-22" target="j_SZXXdtGfIgWa1YjvlN-31">
          <mxGeometry width="50" height="50" relative="1" as="geometry">
            <mxPoint x="110" y="620" as="sourcePoint" />
            <mxPoint x="182.75126265847075" y="645.8578643762689" as="targetPoint" />
          </mxGeometry>
        </mxCell>
      </root>
    </mxGraphModel>
  </diagram>
</mxfile>
